<svg xmlns="http://www.w3.org/2000/svg" viewBox="0 0 760 440" font-family="-apple-system, BlinkMacSystemFont, 'Segoe UI', Roboto, Helvetica, Arial, sans-serif">
  <defs>
    <marker id="a3" markerWidth="10" markerHeight="10" refX="7" refY="3" orient="auto" markerUnits="strokeWidth">
      <path d="M0,0 L8,3 L0,6 Z" fill="#cbd5e1"/>
    </marker>
  </defs>
  <rect width="760" height="440" fill="#ffffff"/>

  <text x="380" y="42" text-anchor="middle" font-size="21" font-weight="700" fill="#0f172a">Benchmarks grade the endpoints. Evaluation grades the path.</text>

  <!-- divider -->
  <line x1="380" y1="80" x2="380" y2="410" stroke="#e2e8f0" stroke-width="1.5" stroke-dasharray="4 6"/>

  <!-- LEFT: what the benchmark sees -->
  <text x="195" y="100" text-anchor="middle" font-size="14" font-weight="700" fill="#475569">What the benchmark sees</text>

  <rect x="120" y="120" width="150" height="40" rx="10" fill="#f1f5f9" stroke="#cbd5e1" stroke-width="1.5"/>
  <text x="195" y="145" text-anchor="middle" font-size="13" fill="#334155">Task</text>
  <path d="M195 160 L195 188" stroke="#cbd5e1" stroke-width="2.5" marker-end="url(#a3)"/>

  <rect x="120" y="192" width="150" height="74" rx="10" fill="#0f172a"/>
  <text x="195" y="222" text-anchor="middle" font-size="13" font-weight="700" fill="#ffffff">Agent</text>
  <text x="195" y="244" text-anchor="middle" font-size="11" fill="#94a3b8">( black box )</text>
  <path d="M195 266 L195 294" stroke="#cbd5e1" stroke-width="2.5" marker-end="url(#a3)"/>

  <rect x="120" y="298" width="150" height="40" rx="10" fill="#f1f5f9" stroke="#cbd5e1" stroke-width="1.5"/>
  <text x="195" y="323" text-anchor="middle" font-size="13" fill="#334155">Answer</text>
  <path d="M195 338 L195 366" stroke="#cbd5e1" stroke-width="2.5" marker-end="url(#a3)"/>

  <rect x="150" y="370" width="90" height="34" rx="17" fill="#f8fafc" stroke="#cbd5e1" stroke-width="1.5"/>
  <text x="195" y="392" text-anchor="middle" font-size="12.5" font-weight="600" fill="#64748b">✓ / ✗</text>

  <!-- RIGHT: what evaluation sees -->
  <text x="565" y="100" text-anchor="middle" font-size="14" font-weight="700" fill="#475569">What evaluation sees</text>

  <!-- helper: stages -->
  <!-- Task -->
  <rect x="470" y="116" width="190" height="34" rx="9" fill="#f1f5f9" stroke="#cbd5e1" stroke-width="1.5"/>
  <text x="555" y="138" text-anchor="middle" font-size="12.5" fill="#334155">Task</text>
  <path d="M565 150 L565 158" stroke="#cbd5e1" stroke-width="2" marker-end="url(#a3)"/>

  <rect x="470" y="160" width="190" height="34" rx="9" fill="#eef2ff" stroke="#6366f1" stroke-width="1.5"/>
  <text x="556" y="182" text-anchor="middle" font-size="12.5" fill="#3730a3">Planning</text>
  <circle cx="648" cy="177" r="8" fill="#dcfce7"/><text x="648" y="181" text-anchor="middle" font-size="11" fill="#15803d">✓</text>
  <path d="M565 194 L565 202" stroke="#cbd5e1" stroke-width="2" marker-end="url(#a3)"/>

  <rect x="470" y="204" width="190" height="34" rx="9" fill="#eef2ff" stroke="#6366f1" stroke-width="1.5"/>
  <text x="556" y="226" text-anchor="middle" font-size="12.5" fill="#3730a3">Delegation</text>
  <circle cx="648" cy="221" r="8" fill="#dcfce7"/><text x="648" y="225" text-anchor="middle" font-size="11" fill="#15803d">✓</text>
  <path d="M565 238 L565 246" stroke="#cbd5e1" stroke-width="2" marker-end="url(#a3)"/>

  <rect x="470" y="248" width="190" height="34" rx="9" fill="#eef2ff" stroke="#6366f1" stroke-width="1.5"/>
  <text x="556" y="270" text-anchor="middle" font-size="12.5" fill="#3730a3">Tool use</text>
  <circle cx="648" cy="265" r="8" fill="#dcfce7"/><text x="648" y="269" text-anchor="middle" font-size="11" fill="#15803d">✓</text>
  <path d="M565 282 L565 290" stroke="#cbd5e1" stroke-width="2" marker-end="url(#a3)"/>

  <rect x="470" y="292" width="190" height="34" rx="9" fill="#eef2ff" stroke="#6366f1" stroke-width="1.5"/>
  <text x="556" y="314" text-anchor="middle" font-size="12.5" fill="#3730a3">Recovery</text>
  <circle cx="648" cy="309" r="8" fill="#dcfce7"/><text x="648" y="313" text-anchor="middle" font-size="11" fill="#15803d">✓</text>
  <path d="M565 326 L565 334" stroke="#cbd5e1" stroke-width="2" marker-end="url(#a3)"/>

  <rect x="470" y="336" width="190" height="34" rx="9" fill="#eef2ff" stroke="#6366f1" stroke-width="1.5"/>
  <text x="556" y="358" text-anchor="middle" font-size="12.5" fill="#3730a3">Policy checks</text>
  <circle cx="648" cy="353" r="8" fill="#dcfce7"/><text x="648" y="357" text-anchor="middle" font-size="11" fill="#15803d">✓</text>
  <path d="M565 370 L565 378" stroke="#cbd5e1" stroke-width="2" marker-end="url(#a3)"/>

  <rect x="470" y="380" width="190" height="34" rx="9" fill="#f1f5f9" stroke="#cbd5e1" stroke-width="1.5"/>
  <text x="555" y="402" text-anchor="middle" font-size="12.5" fill="#334155">Answer</text>
</svg>
